<svg xmlns="http://www.w3.org/2000/svg" viewBox="0 0 700 260">
  <defs>
    <linearGradient id="g" x1="0" y1="0" x2="1" y2="1">
      <stop offset="0%" stop-color="#ffd4e3"/>
      <stop offset="45%" stop-color="#ff93bc"/>
      <stop offset="100%" stop-color="#ff5b9e"/>
    </linearGradient>
  </defs>
  <rect width="700" height="260" rx="28" fill="none"/>
  <g transform="translate(40,18)">
    <text x="0" y="105" font-family="Georgia, 'Times New Roman', serif" font-size="110" fill="url(#g)" letter-spacing="2">LSH</text>
    <path d="M212 71c19 6 36 13 52 23 15 9 28 21 41 35 11 11 26 17 43 17 20 0 40-6 62-16-9 9-20 18-34 26 20 5 38 11 54 22-17-5-35-8-54-8 11 8 20 17 29 28-18-8-34-18-48-30-15-13-30-25-44-37-16-12-34-22-55-30z" fill="url(#g)"/>
    <text x="2" y="152" font-family="Arial, Helvetica, sans-serif" font-size="36" fill="#ffffff" letter-spacing="8">STUDIO RB</text>
    <text x="130" y="210" font-family="'Brush Script MT', 'Segoe Script', cursive" font-size="54" fill="#ff8dbb">Emilly♡</text>
  </g>
</svg>